<?xml version="1.0" encoding="UTF-8"?>
<svg width="153px" height="162px" viewBox="0 0 153 162" version="1.1" xmlns="http://www.w3.org/2000/svg" xmlns:xlink="http://www.w3.org/1999/xlink">
    <!-- Generator: Sketch 45.2 (43514) - http://www.bohemiancoding.com/sketch -->
    <title>Group 2</title>
    <desc>Created with Sketch.</desc>
    <defs>
        <path d="M0.228444767,10.6486413 C6.23281575,16.6491304 15.7942824,16.900163 22.1072968,11.4179348 L10.7838892,0.097173913 L0.228444767,10.6486413 Z" id="path-1"></path>
        <path d="M27.8224664,22.7467935 L5.08897173,0.0242934783 C-1.18596858,6.3001087 -1.18758876,16.4709783 5.09059191,22.7467935 L27.8208463,45.4692935 C34.0974068,39.1934783 34.1006471,29.0226087 27.8224664,22.7467935 Z" id="path-3"></path>
        <path d="M0.175789059,10.7053261 C6.18016004,16.7058152 15.7408166,16.94875 22.0554512,11.4746196 L10.7296133,0.153858696 L0.175789059,10.7053261 Z" id="path-5"></path>
        <path d="M5.03631603,0.0728804348 C-1.23943438,6.34869565 -1.24105455,16.527663 5.03631603,22.8034783 L27.7681906,45.5259783 C34.0447511,39.250163 34.0447511,29.0792935 27.7681906,22.8034783 L5.03631603,0.0728804348 Z" id="path-7"></path>
        <polygon id="path-9" points="0.0486052697 0.41298913 28.6349845 0.41298913 28.6349845 5.46603261 5.60742794 5.46603261 5.60742794 17.9852717 25.853953 17.9852717 25.853953 22.9006522 5.60742794 22.9006522 5.60742794 41.6471196 0.0486052697 41.6471196 0.0486052697 0.41298913"></polygon>
        <path d="M5.97520782,0.251032609 L5.97520782,20.2040761 C5.97520782,21.742663 6.21823417,22.9978261 6.70509695,23.9695652 C7.60429444,25.7672826 9.27874598,26.6580435 11.7316919,26.6580435 C15.2507134,26.6580435 17.6477633,25.0870652 18.9204113,21.9451087 C19.6130364,20.2607609 19.959754,17.9528804 19.959754,15.0133696 L19.959754,0.251032609 L25.014702,0.251032609 L25.014702,30.310163 L20.2400444,30.310163 L20.2967505,25.8725543 C19.6413895,27.0143478 18.8264411,27.9779891 17.8535256,28.7634783 C15.9247065,30.3425543 13.585983,31.1280435 10.8333045,31.1280435 C6.54550965,31.1280435 3.62595312,29.6947283 2.07220466,26.8280978 C1.22971332,25.2976087 0.807657564,23.2488587 0.807657564,20.6818478 L0.807657564,0.251032609 L5.97520782,0.251032609 Z" id="path-11"></path>
        <path d="M4.67258659,0.761195652 L9.7834307,0.761195652 L9.7834307,9.1586413 L14.5856313,9.1586413 L14.5856313,13.2804348 L9.7834307,13.2804348 L9.7834307,32.9014674 C9.7834307,33.9541848 10.1390593,34.6505978 10.8503164,35.0069022 C11.243209,35.2174457 11.89857,35.3146196 12.8155894,35.3146196 C13.0594259,35.3146196 13.3210842,35.3065217 13.6021847,35.2903261 C13.8832852,35.2903261 14.2105607,35.2741304 14.5856313,35.2336413 L14.5856313,39.2177717 C14.0047984,39.3878261 13.4012829,39.5092935 12.774275,39.5821739 C12.1464569,39.6631522 11.4676033,39.6955435 10.7377142,39.6955435 C8.37954849,39.6955435 6.77800486,39.0963043 5.93551351,37.8897283 C5.09383226,36.6750543 4.67258659,35.1121739 4.67258659,33.1848913 L4.67258659,13.2804348 L0.60027508,13.2804348 L0.60027508,9.1586413 L4.67258659,9.1586413 L4.67258659,0.761195652 Z" id="path-13"></path>
        <path d="M5.92903281,0.251032609 L5.92903281,20.2040761 C5.92903281,21.742663 6.17286925,22.9978261 6.65892194,23.9695652 C7.55730935,25.7672826 9.23257097,26.6580435 11.6855169,26.6580435 C15.2061586,26.6580435 17.6015883,25.0870652 18.8750464,21.9451087 C19.5676715,20.2607609 19.9143891,17.9528804 19.9143891,15.0133696 L19.9143891,0.251032609 L24.9677169,0.251032609 L24.9677169,30.310163 L20.1946795,30.310163 L20.2513856,25.8725543 C19.5944044,27.0143478 18.7818863,27.9779891 17.8065405,28.7634783 C15.8801517,30.3425543 13.539808,31.1280435 10.7863194,31.1280435 C6.50014473,31.1280435 3.57977811,29.6947283 2.02602966,26.8280978 C1.18272823,25.2976087 0.761482558,23.2488587 0.761482558,20.6818478 L0.761482558,0.251032609 L5.92903281,0.251032609 Z" id="path-15"></path>
        <path d="M0.307833375,1.06081522 L5.11003402,1.06081522 L5.11003402,6.25152174 C5.5037367,5.23929348 6.46693113,4.00842391 8.00204756,2.55891304 C9.53797408,1.10940217 11.3072059,0.380597826 13.3105531,0.380597826 C13.4037132,0.380597826 13.5633005,0.396793478 13.7885049,0.41298913 C14.0128992,0.429184783 14.3960708,0.469673913 14.9380195,0.526358696 L14.9380195,5.85472826 C14.6390971,5.79804348 14.3620471,5.76565217 14.1109199,5.7413587 C13.8573624,5.72516304 13.5811224,5.71706522 13.2822,5.71706522 C10.736094,5.71706522 8.77892179,6.53494565 7.41311371,8.17070652 C6.04649555,9.81456522 5.36278142,11.6932609 5.36278142,13.831087 L5.36278142,31.1199457 L0.307833375,31.1199457 L0.307833375,1.06081522 Z" id="path-17"></path>
        <path d="M22.4361925,13.6934239 C22.2304302,11.498913 21.7532884,9.74978261 21.0047673,8.43793478 C19.618707,6.00858696 17.3067164,4.79391304 14.0679852,4.79391304 C11.7470836,4.79391304 9.79963245,5.62798913 8.22644189,7.30423913 C6.65406142,8.98048913 5.82210122,11.1102174 5.72813103,13.6934239 L22.4361925,13.6934239 Z M25.1613279,5.77375 C26.1723175,7.28804348 26.8463106,9.05336957 27.1833071,11.0778261 C27.4822296,12.4625543 27.6320958,14.6732609 27.6320958,17.7018478 L5.58717575,17.7018478 C5.68114594,20.7547283 6.4021241,23.2002717 7.75011025,25.0465761 C9.09647622,26.8847826 11.1856927,27.8079348 14.0112791,27.8079348 C16.6521654,27.8079348 18.7575837,26.9414674 20.3307742,25.2004348 C21.2291616,24.1882065 21.8650806,23.0140217 22.2401512,21.6859783 L27.21004,21.6859783 C27.0788058,22.7953804 26.6437887,24.02625 25.9049886,25.378587 C25.1637582,26.7390217 24.3366585,27.8484239 23.418829,28.7067935 C21.8845227,30.2048913 19.9840566,31.2171196 17.718241,31.7353804 C16.5014891,32.035 15.1251498,32.1888587 13.5900334,32.1888587 C9.84661755,32.1888587 6.67269344,30.8284239 4.06988125,28.1075543 C1.46868923,25.378587 0.166878093,21.5645109 0.166878093,16.6653261 C0.166878093,11.8390217 1.47841029,7.91967391 4.09904441,4.89918478 C6.72048862,1.8948913 10.14554,0.380597826 14.3766287,0.380597826 C16.5112101,0.380597826 18.5809845,0.882663043 20.5835216,1.88679348 C22.5868688,2.89092391 24.1122642,4.18657609 25.1613279,5.77375 Z" id="path-19"></path>
    </defs>
    <g id="Page-1" stroke="none" stroke-width="1" fill="none" fill-rule="evenodd">
        <g id="Group-2" transform="translate(-1.000000, 0.000000)">
            <path d="M1.2744,145.784835 L6.372,145.784835 C7.50960569,145.784835 8.3879969,146.008033 9.0072,146.454435 C9.6264031,146.900837 9.936,147.55603 9.936,148.420035 C9.936,149.082438 9.76680169,149.636833 9.4284,150.083235 C9.08999831,150.529637 8.61840302,150.839234 8.0136,151.012035 L8.0136,151.055235 C8.74800367,151.184835 9.32399791,151.472833 9.7416,151.919235 C10.1592021,152.365637 10.368,152.999231 10.368,153.820035 C10.368,154.82804 10.0296034,155.598432 9.3528,156.131235 C8.67599662,156.664037 7.68240655,156.930435 6.372,156.930435 L1.2744,156.930435 L1.2744,145.784835 Z M6.2208,155.785635 C7.17120475,155.785635 7.87319773,155.609237 8.3268,155.256435 C8.78040227,154.903633 9.0072,154.374438 9.0072,153.668835 C9.0072,153.020832 8.78040227,152.524037 8.3268,152.178435 C7.87319773,151.832833 7.17120475,151.660035 6.2208,151.660035 L2.6352,151.660035 L2.6352,155.785635 L6.2208,155.785635 Z M6.2208,150.601635 C6.99840389,150.601635 7.58519802,150.436036 7.9812,150.104835 C8.37720198,149.773633 8.5752,149.327238 8.5752,148.765635 C8.5752,147.541629 7.79040785,146.929635 6.2208,146.929635 L2.6352,146.929635 L2.6352,150.601635 L6.2208,150.601635 Z M17.2044,157.232835 C16.3115955,157.232835 15.5484032,157.078036 14.9148,156.768435 C14.2811968,156.458833 13.762802,156.034037 13.3596,155.494035 C12.956398,154.954032 12.657601,154.331238 12.4632,153.625635 C12.268799,152.920031 12.1716,152.164039 12.1716,151.357635 C12.1716,150.623231 12.268799,149.903238 12.4632,149.197635 C12.657601,148.492031 12.956398,147.862038 13.3596,147.307635 C13.762802,146.753232 14.2811968,146.306836 14.9148,145.968435 C15.5484032,145.630033 16.3115955,145.460835 17.2044,145.460835 C18.0972045,145.460835 18.8603968,145.640833 19.494,146.000835 C20.1276032,146.360837 20.642398,146.832432 21.0384,147.415635 C21.434402,147.998838 21.7187991,148.668431 21.8916,149.424435 C22.0644009,150.180439 22.1364002,150.947231 22.1076,151.724835 L13.5324,151.724835 C13.5324,152.228837 13.6007993,152.740032 13.7376,153.258435 C13.8744007,153.776837 14.0939985,154.244833 14.3964,154.662435 C14.6988015,155.080037 15.0803977,155.425633 15.5412,155.699235 C16.0020023,155.972836 16.5563968,156.109635 17.2044,156.109635 C18.198005,156.109635 18.9755972,155.850437 19.5372,155.332035 C20.0988028,154.813632 20.4875989,154.122439 20.7036,153.258435 L22.0644,153.258435 C21.7763986,154.525641 21.2472039,155.504831 20.4768,156.196035 C19.7063962,156.887238 18.6156071,157.232835 17.2044,157.232835 Z M20.7468,150.580035 C20.7323999,150.061632 20.6424008,149.564837 20.4768,149.089635 C20.3111992,148.614432 20.0772015,148.193237 19.7748,147.826035 C19.4723985,147.458833 19.1052022,147.163636 18.6732,146.940435 C18.2411979,146.717234 17.7516027,146.605635 17.2044,146.605635 C16.6427972,146.605635 16.1460022,146.717234 15.714,146.940435 C15.2819979,147.163636 14.9148015,147.458833 14.6124,147.826035 C14.3099985,148.193237 14.0688009,148.618032 13.8888,149.100435 C13.7087991,149.582837 13.5900003,150.076032 13.5324,150.580035 L20.7468,150.580035 Z M24.2136,145.784835 L25.4664,145.784835 L25.4664,147.901635 L25.5096,147.901635 C25.8264016,147.124031 26.3411965,146.522837 27.054,146.098035 C27.7668036,145.673233 28.5767955,145.460835 29.484,145.460835 C30.3336043,145.460835 31.0715969,145.619233 31.698,145.936035 C32.3244032,146.252836 32.8463979,146.681232 33.264,147.221235 C33.6816021,147.761237 33.991199,148.387631 34.1928,149.100435 C34.394401,149.813238 34.4952,150.565631 34.4952,151.357635 C34.4952,152.164039 34.394401,152.920031 34.1928,153.625635 C33.991199,154.331238 33.6816021,154.954032 33.264,155.494035 C32.8463979,156.034037 32.3244032,156.458833 31.698,156.768435 C31.0715969,157.078036 30.3336043,157.232835 29.484,157.232835 C29.0663979,157.232835 28.659602,157.182435 28.2636,157.081635 C27.867598,156.980834 27.4968017,156.829636 27.1512,156.628035 C26.8055983,156.426434 26.4996014,156.174436 26.2332,155.872035 C25.9667987,155.569633 25.7616007,155.216837 25.6176,154.813635 L25.5744,154.813635 L25.5744,161.034435 L24.2136,161.034435 L24.2136,145.784835 Z M29.484,156.109635 C30.1320033,156.109635 30.6863977,155.969236 31.1472,155.688435 C31.6080023,155.407633 31.9859985,155.044037 32.2812,154.597635 C32.5764015,154.151233 32.7923993,153.643638 32.9292,153.074835 C33.0660007,152.506032 33.1344,151.933638 33.1344,151.357635 C33.1344,150.781632 33.0660007,150.209238 32.9292,149.640435 C32.7923993,149.071632 32.5764015,148.564037 32.2812,148.117635 C31.9859985,147.671233 31.6080023,147.307636 31.1472,147.026835 C30.6863977,146.746033 30.1320033,146.605635 29.484,146.605635 C28.7207962,146.605635 28.0908025,146.735233 27.594,146.994435 C27.0971975,147.253636 26.6976015,147.599233 26.3952,148.031235 C26.0927985,148.463237 25.8804006,148.967232 25.758,149.543235 C25.6355994,150.119238 25.5744,150.724032 25.5744,151.357635 C25.5744,151.933638 25.6427993,152.506032 25.7796,153.074835 C25.9164007,153.643638 26.1395985,154.151233 26.4492,154.597635 C26.7588016,155.044037 27.1619975,155.407633 27.6588,155.688435 C28.1556025,155.969236 28.7639964,156.109635 29.484,156.109635 Z M41.5908,157.232835 C40.7411958,157.232835 39.9888033,157.078036 39.3336,156.768435 C38.6783968,156.458833 38.1276023,156.037637 37.6812,155.504835 C37.2347978,154.972032 36.8964012,154.349238 36.666,153.636435 C36.4355989,152.923631 36.3204,152.164039 36.3204,151.357635 C36.3204,150.565631 36.4355989,149.809638 36.666,149.089635 C36.8964012,148.369631 37.2347978,147.743237 37.6812,147.210435 C38.1276023,146.677632 38.6783968,146.252836 39.3336,145.936035 C39.9888033,145.619233 40.7411958,145.460835 41.5908,145.460835 C42.786006,145.460835 43.7975959,145.777632 44.6256,146.411235 C45.4536042,147.044838 45.9467992,148.002428 46.1052,149.284035 L44.7444,149.284035 C44.5571991,148.448831 44.2116026,147.793637 43.7076,147.318435 C43.2035975,146.843232 42.4980046,146.605635 41.5908,146.605635 C40.9427968,146.605635 40.3740025,146.742433 39.8844,147.016035 C39.3947976,147.289636 38.9880017,147.649633 38.664,148.096035 C38.3399984,148.542437 38.0952009,149.050032 37.9296,149.618835 C37.7639992,150.187638 37.6812,150.767232 37.6812,151.357635 C37.6812,151.948038 37.7639992,152.527632 37.9296,153.096435 C38.0952009,153.665238 38.3399984,154.172833 38.664,154.619235 C38.9880017,155.065637 39.3947976,155.425633 39.8844,155.699235 C40.3740025,155.972836 40.9427968,156.109635 41.5908,156.109635 C42.0084021,156.109635 42.4043982,156.030436 42.7788,155.872035 C43.1532019,155.713634 43.4843986,155.494036 43.7724,155.213235 C44.0604015,154.932433 44.2979991,154.597637 44.4852,154.208835 C44.672401,153.820033 44.7875998,153.395237 44.8308,152.934435 L46.1916,152.934435 C46.0043991,154.288042 45.5076041,155.342831 44.7012,156.098835 C43.894796,156.854839 42.8580064,157.232835 41.5908,157.232835 Z M51.1704,146.929635 L47.0448,146.929635 L47.0448,145.784835 L56.6568,145.784835 L56.6568,146.929635 L52.5312,146.929635 L52.5312,156.930435 L51.1704,156.930435 L51.1704,146.929635 Z M58.2012001,145.784835 L59.5620001,145.784835 L59.5620001,151.508835 L65.7396001,145.784835 L67.5540001,145.784835 L62.8236001,150.148035 L67.8348001,156.930435 L66.1284001,156.930435 L61.8300001,151.076835 L59.5620001,153.172035 L59.5620001,156.930435 L58.2012001,156.930435 L58.2012001,145.784835 Z M72.3600001,157.232835 C71.8415975,157.232835 71.3556023,157.171635 70.9020001,157.049235 C70.4483978,156.926834 70.0524018,156.732436 69.7140001,156.466035 C69.3755984,156.199633 69.109201,155.861237 68.9148001,155.450835 C68.7203991,155.040433 68.6232001,154.554438 68.6232001,153.992835 C68.6232001,153.215231 68.7959983,152.606837 69.1416001,152.167635 C69.4872018,151.728433 69.9443972,151.393636 70.5132001,151.163235 C71.0820029,150.932834 71.7227965,150.770835 72.4356001,150.677235 C73.1484036,150.583634 73.8719964,150.493635 74.6064001,150.407235 C74.8800014,150.378435 75.1283989,150.342435 75.3516001,150.299235 C75.5748012,150.256035 75.7583993,150.180435 75.9024001,150.072435 C76.0464008,149.964434 76.1579997,149.816836 76.2372001,149.629635 C76.3164005,149.442434 76.3560001,149.197636 76.3560001,148.895235 C76.3560001,148.434432 76.2804008,148.056436 76.1292001,147.761235 C75.9779993,147.466033 75.7692014,147.232036 75.5028001,147.059235 C75.2363987,146.886434 74.9268018,146.767635 74.5740001,146.702835 C74.2211983,146.638034 73.8432021,146.605635 73.4400001,146.605635 C72.5759957,146.605635 71.8704028,146.810833 71.3232001,147.221235 C70.7759973,147.631637 70.4880002,148.29043 70.4592001,149.197635 L69.0984001,149.197635 C69.1848005,147.887228 69.634796,146.936838 70.4484001,146.346435 C71.2620041,145.756032 72.3167936,145.460835 73.6128001,145.460835 C74.1024025,145.460835 74.5919976,145.507634 75.0816001,145.601235 C75.5712025,145.694835 76.0103981,145.871233 76.3992001,146.130435 C76.788002,146.389636 77.1047988,146.753232 77.3496001,147.221235 C77.5944013,147.689237 77.7168001,148.297631 77.7168001,149.046435 L77.7168001,154.964835 C77.7168001,155.512038 77.9831974,155.785635 78.5160001,155.785635 C78.6888009,155.785635 78.8327995,155.756835 78.9480001,155.699235 L78.9480001,156.844035 C78.7895993,156.872835 78.6492007,156.894435 78.5268001,156.908835 C78.4043995,156.923235 78.249601,156.930435 78.0624001,156.930435 C77.7167983,156.930435 77.4396011,156.883635 77.2308001,156.790035 C77.021999,156.696434 76.8600006,156.563236 76.7448001,156.390435 C76.6295995,156.217634 76.5540002,156.012436 76.5180001,155.774835 C76.4819999,155.537234 76.4640001,155.274436 76.4640001,154.986435 L76.4208001,154.986435 C76.1759988,155.346437 75.9276013,155.666833 75.6756001,155.947635 C75.4235988,156.228436 75.1428016,156.462434 74.8332001,156.649635 C74.5235985,156.836836 74.1672021,156.980834 73.7640001,157.081635 C73.360798,157.182435 72.8928027,157.232835 72.3600001,157.232835 Z M72.4680001,156.109635 C72.9864027,156.109635 73.4831977,156.030436 73.9584001,155.872035 C74.4336024,155.713634 74.8475983,155.483236 75.2004001,155.180835 C75.5532018,154.878433 75.833999,154.511237 76.0428001,154.079235 C76.2516011,153.647233 76.3560001,153.157638 76.3560001,152.610435 L76.3560001,150.839235 L76.3128001,150.839235 C76.2263996,150.997636 76.0608013,151.112834 75.8160001,151.184835 C75.5711988,151.256835 75.355201,151.307235 75.1680001,151.336035 C74.5919972,151.436835 73.9980031,151.526834 73.3860001,151.606035 C72.773997,151.685235 72.2160026,151.804034 71.7120001,151.962435 C71.2079975,152.120836 70.7940017,152.351233 70.4700001,152.653635 C70.1459984,152.956036 69.9840001,153.373632 69.9840001,153.906435 C69.9840001,154.252037 70.0523994,154.558033 70.1892001,154.824435 C70.3260007,155.090836 70.5095989,155.321234 70.7400001,155.515635 C70.9704012,155.710036 71.2331986,155.857634 71.5284001,155.958435 C71.8236015,156.059235 72.1367984,156.109635 72.4680001,156.109635 Z M91.6920001,157.232835 C90.8423958,157.232835 90.0900034,157.078036 89.4348001,156.768435 C88.7795968,156.458833 88.2288023,156.037637 87.7824001,155.504835 C87.3359979,154.972032 86.9976012,154.349238 86.7672001,153.636435 C86.5367989,152.923631 86.4216001,152.164039 86.4216001,151.357635 C86.4216001,150.565631 86.5367989,149.809638 86.7672001,149.089635 C86.9976012,148.369631 87.3359979,147.743237 87.7824001,147.210435 C88.2288023,146.677632 88.7795968,146.252836 89.4348001,145.936035 C90.0900034,145.619233 90.8423958,145.460835 91.6920001,145.460835 C92.8872061,145.460835 93.8987959,145.777632 94.7268001,146.411235 C95.5548042,147.044838 96.0479993,148.002428 96.2064001,149.284035 L94.8456001,149.284035 C94.6583991,148.448831 94.3128026,147.793637 93.8088001,147.318435 C93.3047976,146.843232 92.5992046,146.605635 91.6920001,146.605635 C91.0439968,146.605635 90.4752025,146.742433 89.9856001,147.016035 C89.4959976,147.289636 89.0892017,147.649633 88.7652001,148.096035 C88.4411985,148.542437 88.1964009,149.050032 88.0308001,149.618835 C87.8651993,150.187638 87.7824001,150.767232 87.7824001,151.357635 C87.7824001,151.948038 87.8651993,152.527632 88.0308001,153.096435 C88.1964009,153.665238 88.4411985,154.172833 88.7652001,154.619235 C89.0892017,155.065637 89.4959976,155.425633 89.9856001,155.699235 C90.4752025,155.972836 91.0439968,156.109635 91.6920001,156.109635 C92.1096022,156.109635 92.5055982,156.030436 92.8800001,155.872035 C93.254402,155.713634 93.5855986,155.494036 93.8736001,155.213235 C94.1616015,154.932433 94.3991991,154.597637 94.5864001,154.208835 C94.773601,153.820033 94.8887999,153.395237 94.9320001,152.934435 L96.2928001,152.934435 C96.1055991,154.288042 95.6088041,155.342831 94.8024001,156.098835 C93.9959961,156.854839 92.9592064,157.232835 91.6920001,157.232835 Z M101.5956,157.232835 C101.077198,157.232835 100.591202,157.171635 100.1376,157.049235 C99.6839978,156.926834 99.2880018,156.732436 98.9496001,156.466035 C98.6111984,156.199633 98.3448011,155.861237 98.1504001,155.450835 C97.9559991,155.040433 97.8588001,154.554438 97.8588001,153.992835 C97.8588001,153.215231 98.0315984,152.606837 98.3772001,152.167635 C98.7228018,151.728433 99.1799973,151.393636 99.7488001,151.163235 C100.317603,150.932834 100.958397,150.770835 101.6712,150.677235 C102.384004,150.583634 103.107596,150.493635 103.842,150.407235 C104.115601,150.378435 104.363999,150.342435 104.5872,150.299235 C104.810401,150.256035 104.993999,150.180435 105.138,150.072435 C105.282001,149.964434 105.3936,149.816836 105.4728,149.629635 C105.552,149.442434 105.5916,149.197636 105.5916,148.895235 C105.5916,148.434432 105.516001,148.056436 105.3648,147.761235 C105.213599,147.466033 105.004801,147.232036 104.7384,147.059235 C104.471999,146.886434 104.162402,146.767635 103.8096,146.702835 C103.456798,146.638034 103.078802,146.605635 102.6756,146.605635 C101.811596,146.605635 101.106003,146.810833 100.5588,147.221235 C100.011597,147.631637 99.7236002,148.29043 99.6948001,149.197635 L98.3340001,149.197635 C98.4204005,147.887228 98.870396,146.936838 99.6840001,146.346435 C100.497604,145.756032 101.552394,145.460835 102.8484,145.460835 C103.338003,145.460835 103.827598,145.507634 104.3172,145.601235 C104.806803,145.694835 105.245998,145.871233 105.6348,146.130435 C106.023602,146.389636 106.340399,146.753232 106.5852,147.221235 C106.830001,147.689237 106.9524,148.297631 106.9524,149.046435 L106.9524,154.964835 C106.9524,155.512038 107.218797,155.785635 107.7516,155.785635 C107.924401,155.785635 108.0684,155.756835 108.1836,155.699235 L108.1836,156.844035 C108.025199,156.872835 107.884801,156.894435 107.7624,156.908835 C107.639999,156.923235 107.485201,156.930435 107.298,156.930435 C106.952398,156.930435 106.675201,156.883635 106.4664,156.790035 C106.257599,156.696434 106.095601,156.563236 105.9804,156.390435 C105.8652,156.217634 105.7896,156.012436 105.7536,155.774835 C105.7176,155.537234 105.6996,155.274436 105.6996,154.986435 L105.6564,154.986435 C105.411599,155.346437 105.163201,155.666833 104.9112,155.947635 C104.659199,156.228436 104.378402,156.462434 104.0688,156.649635 C103.759199,156.836836 103.402802,156.980834 102.9996,157.081635 C102.596398,157.182435 102.128403,157.232835 101.5956,157.232835 Z M101.7036,156.109635 C102.222003,156.109635 102.718798,156.030436 103.194,155.872035 C103.669202,155.713634 104.083198,155.483236 104.436,155.180835 C104.788802,154.878433 105.069599,154.511237 105.2784,154.079235 C105.487201,153.647233 105.5916,153.157638 105.5916,152.610435 L105.5916,150.839235 L105.5484,150.839235 C105.462,150.997636 105.296401,151.112834 105.0516,151.184835 C104.806799,151.256835 104.590801,151.307235 104.4036,151.336035 C103.827597,151.436835 103.233603,151.526834 102.6216,151.606035 C102.009597,151.685235 101.451603,151.804034 100.9476,151.962435 C100.443598,152.120836 100.029602,152.351233 99.7056001,152.653635 C99.3815985,152.956036 99.2196001,153.373632 99.2196001,153.906435 C99.2196001,154.252037 99.2879994,154.558033 99.4248001,154.824435 C99.5616008,155.090836 99.7451989,155.321234 99.9756001,155.515635 C100.206001,155.710036 100.468799,155.857634 100.764,155.958435 C101.059202,156.059235 101.372398,156.109635 101.7036,156.109635 Z M109.9224,145.784835 L111.2832,145.784835 L111.2832,155.332035 L117.4392,145.784835 L119.124,145.784835 L119.124,156.930435 L117.7632,156.930435 L117.7632,147.383235 L111.6072,156.930435 L109.9224,156.930435 L109.9224,145.784835 Z M114.48,144.143235 C113.572796,144.143235 112.867203,143.902037 112.3632,143.419635 C111.859198,142.937232 111.549601,142.242439 111.4344,141.335235 L112.2768,141.335235 C112.3488,141.882438 112.575598,142.314433 112.9572,142.631235 C113.338802,142.948036 113.853597,143.106435 114.5016,143.106435 C115.120803,143.106435 115.628398,142.951636 116.0244,142.642035 C116.420402,142.332433 116.676,141.896838 116.7912,141.335235 L117.6336,141.335235 C117.475199,142.242439 117.136803,142.937232 116.6184,143.419635 C116.099998,143.902037 115.387205,144.143235 114.48,144.143235 Z M124.7724,146.929635 L120.6468,146.929635 L120.6468,145.784835 L130.2588,145.784835 L130.2588,146.929635 L126.1332,146.929635 L126.1332,156.930435 L124.7724,156.930435 L124.7724,146.929635 Z M136.512,157.232835 C135.662396,157.232835 134.910003,157.078036 134.2548,156.768435 C133.599597,156.458833 133.048802,156.037637 132.6024,155.504835 C132.155998,154.972032 131.817601,154.349238 131.5872,153.636435 C131.356799,152.923631 131.2416,152.164039 131.2416,151.357635 C131.2416,150.565631 131.356799,149.809638 131.5872,149.089635 C131.817601,148.369631 132.155998,147.743237 132.6024,147.210435 C133.048802,146.677632 133.599597,146.252836 134.2548,145.936035 C134.910003,145.619233 135.662396,145.460835 136.512,145.460835 C137.361604,145.460835 138.113997,145.619233 138.7692,145.936035 C139.424403,146.252836 139.975198,146.677632 140.4216,147.210435 C140.868002,147.743237 141.206399,148.369631 141.4368,149.089635 C141.667201,149.809638 141.7824,150.565631 141.7824,151.357635 C141.7824,152.164039 141.667201,152.923631 141.4368,153.636435 C141.206399,154.349238 140.868002,154.972032 140.4216,155.504835 C139.975198,156.037637 139.424403,156.458833 138.7692,156.768435 C138.113997,157.078036 137.361604,157.232835 136.512,157.232835 Z M136.512,156.109635 C137.160003,156.109635 137.728798,155.972836 138.2184,155.699235 C138.708003,155.425633 139.114799,155.065637 139.4388,154.619235 C139.762802,154.172833 140.007599,153.665238 140.1732,153.096435 C140.338801,152.527632 140.4216,151.948038 140.4216,151.357635 C140.4216,150.767232 140.338801,150.187638 140.1732,149.618835 C140.007599,149.050032 139.762802,148.542437 139.4388,148.096035 C139.114799,147.649633 138.708003,147.289636 138.2184,147.016035 C137.728798,146.742433 137.160003,146.605635 136.512,146.605635 C135.863997,146.605635 135.295203,146.742433 134.8056,147.016035 C134.315998,147.289636 133.909202,147.649633 133.5852,148.096035 C133.261199,148.542437 133.016401,149.050032 132.8508,149.618835 C132.685199,150.187638 132.6024,150.767232 132.6024,151.357635 C132.6024,151.948038 132.685199,152.527632 132.8508,153.096435 C133.016401,153.665238 133.261199,154.172833 133.5852,154.619235 C133.909202,155.065637 134.315998,155.425633 134.8056,155.699235 C135.295203,155.972836 135.863997,156.109635 136.512,156.109635 Z M144.0612,145.784835 L149.1588,145.784835 C150.296406,145.784835 151.174797,146.008033 151.794,146.454435 C152.413203,146.900837 152.7228,147.55603 152.7228,148.420035 C152.7228,149.082438 152.553602,149.636833 152.2152,150.083235 C151.876798,150.529637 151.405203,150.839234 150.8004,151.012035 L150.8004,151.055235 C151.534804,151.184835 152.110798,151.472833 152.5284,151.919235 C152.946002,152.365637 153.1548,152.999231 153.1548,153.820035 C153.1548,154.82804 152.816404,155.598432 152.1396,156.131235 C151.462797,156.664037 150.469207,156.930435 149.1588,156.930435 L144.0612,156.930435 L144.0612,145.784835 Z M149.0076,155.785635 C149.958005,155.785635 150.659998,155.609237 151.1136,155.256435 C151.567202,154.903633 151.794,154.374438 151.794,153.668835 C151.794,153.020832 151.567202,152.524037 151.1136,152.178435 C150.659998,151.832833 149.958005,151.660035 149.0076,151.660035 L145.422,151.660035 L145.422,155.785635 L149.0076,155.785635 Z M149.0076,150.601635 C149.785204,150.601635 150.371998,150.436036 150.768,150.104835 C151.164002,149.773633 151.362,149.327238 151.362,148.765635 C151.362,147.541629 150.577208,146.929635 149.0076,146.929635 L145.422,146.929635 L145.422,150.601635 L149.0076,150.601635 Z" id="верстка-сайтов" fill="#000000"></path>
            <g id="logo" transform="translate(1.802326, 0.000000)">
                <g id="Group-3" transform="translate(91.539925, 34.820652)">
                    <mask id="mask-2" fill="white">
                        <use xlink:href="#path-1"></use>
                    </mask>
                    <g id="Clip-2"></g>
                    <polygon id="Fill-1" fill="#5CB682" mask="url(#mask-2)" points="0.178219322 15.4020652 22.1478012 15.4020652 22.1478012 0.0485869565 0.178219322 0.0485869565"></polygon>
                </g>
                <g id="Group-6" transform="translate(86.679398, 0.000000)">
                    <mask id="mask-4" fill="white">
                        <use xlink:href="#path-3"></use>
                    </mask>
                    <g id="Clip-5"></g>
                    <polygon id="Fill-4" fill="#5CB682" mask="url(#mask-4)" points="0.372640401 45.5583696 32.5493289 45.5583696 32.5493289 -0.0161956522 0.372640401 -0.0161956522"></polygon>
                </g>
                <g id="Group-9" transform="translate(67.237290, 59.114130)">
                    <mask id="mask-6" fill="white">
                        <use xlink:href="#path-5"></use>
                    </mask>
                    <g id="Clip-8"></g>
                    <polygon id="Fill-7" fill="#5CB682" mask="url(#mask-6)" points="0.0810087828 15.4020652 22.1478012 15.4020652 22.1478012 0.14576087 0.0810087828 0.14576087"></polygon>
                </g>
                <g id="Group-12" transform="translate(62.376763, 24.293478)">
                    <mask id="mask-8" fill="white">
                        <use xlink:href="#path-7"></use>
                    </mask>
                    <g id="Clip-11"></g>
                    <polygon id="Fill-10" fill="#5CB682" mask="url(#mask-8)" points="0.275429861 45.5583696 32.5493289 45.5583696 32.5493289 -0.0161956522 0.275429861 -0.0161956522"></polygon>
                </g>
                <g id="Group-15" transform="translate(0.000000, 91.505435)">
                    <mask id="mask-10" fill="white">
                        <use xlink:href="#path-9"></use>
                    </mask>
                    <g id="Clip-14"></g>
                    <polygon id="Fill-13" fill="#181717" mask="url(#mask-10)" points="0.0486052697 41.7038043 28.7257144 41.7038043 28.7257144 0.404891304 0.0486052697 0.404891304"></polygon>
                </g>
                <g id="Group-18" transform="translate(29.973250, 102.842391)">
                    <mask id="mask-12" fill="white">
                        <use xlink:href="#path-11"></use>
                    </mask>
                    <g id="Clip-17"></g>
                    <polygon id="Fill-16" fill="#181717" mask="url(#mask-12)" points="0.793886071 31.1442391 25.0965209 31.1442391 25.0965209 0.242934783 0.793886071 0.242934783"></polygon>
                </g>
                <g id="Group-21" transform="translate(58.326324, 93.934783)">
                    <mask id="mask-14" fill="white">
                        <use xlink:href="#path-13"></use>
                    </mask>
                    <g id="Clip-20"></g>
                    <polygon id="Fill-19" fill="#181717" mask="url(#mask-14)" points="0.534657966 39.7603261 14.6301862 39.7603261 14.6301862 0.696413043 0.534657966 0.696413043"></polygon>
                </g>
                <g id="Group-24" transform="translate(76.148256, 102.842391)">
                    <mask id="mask-16" fill="white">
                        <use xlink:href="#path-15"></use>
                    </mask>
                    <g id="Clip-23"></g>
                    <polygon id="Fill-22" fill="#181717" mask="url(#mask-16)" points="0.696675532 31.1442391 24.9993104 31.1442391 24.9993104 0.242934783 0.696675532 0.242934783"></polygon>
                </g>
                <g id="Group-27" transform="translate(107.741681, 102.032609)">
                    <mask id="mask-18" fill="white">
                        <use xlink:href="#path-17"></use>
                    </mask>
                    <g id="Clip-26"></g>
                    <polygon id="Fill-25" fill="#181717" mask="url(#mask-18)" points="0.307833375 31.1766304 14.9866248 31.1766304 14.9866248 0.3725 0.307833375 0.3725"></polygon>
                </g>
                <g id="Group-30" transform="translate(123.943438, 102.032609)">
                    <mask id="mask-20" fill="white">
                        <use xlink:href="#path-19"></use>
                    </mask>
                    <g id="Clip-29"></g>
                    <polygon id="Fill-28" fill="#181717" mask="url(#mask-20)" points="0.145815809 32.2455435 27.6563984 32.2455435 27.6563984 0.3725 0.145815809 0.3725"></polygon>
                </g>
            </g>
        </g>
    </g>
</svg>