<?xml version="1.0" encoding="UTF-8"?>
<svg width="24px" height="24px" viewBox="0 0 24 24" version="1.1" xmlns="http://www.w3.org/2000/svg" xmlns:xlink="http://www.w3.org/1999/xlink">
    <!-- Generator: Sketch 45.2 (43514) - http://www.bohemiancoding.com/sketch -->
    <title>noun_929352_cc</title>
    <desc>Created with Sketch.</desc>
    <defs></defs>
    <g id="Page-1" stroke="none" stroke-width="1" fill="none" fill-rule="evenodd">
        <g id="Front-end_projects" transform="translate(-595.000000, -280.000000)" fill-rule="nonzero" fill="#B4B4B4">
            <g id="Group-4" transform="translate(575.000000, 266.000000)">
                <g id="noun_929352_cc" transform="translate(20.000000, 14.000000)">
                    <path d="M24,22.8036098 L17.3465347,16.1615814 C20.6112785,12.283627 20.445975,6.50795015 16.8092983,2.87752471 C12.9659923,-0.959174903 6.72578562,-0.959174903 2.88247955,2.87752471 C-0.960826517,6.71422432 -0.960826517,12.9437043 2.88247955,16.780404 C4.78346965,18.6781263 7.3456737,19.6682424 9.86655187,19.6682424 C12.1394748,19.6682424 14.3710719,18.8844005 16.2307361,17.3579716 L22.8842015,24 L24,22.8036098 Z M4.03960396,15.6252686 C0.857511838,12.4486463 0.857511838,7.25053717 4.03960396,4.07391491 C5.65131296,2.46497636 7.71760654,1.68113451 9.825226,1.68113451 C11.9328455,1.68113451 14.0404649,2.46497636 15.610848,4.07391491 C18.7929402,7.25053717 18.7929402,12.4486463 15.610848,15.6252686 C12.4287559,18.8018908 7.22169608,18.8018908 4.03960396,15.6252686 Z" id="Shape"></path>
                </g>
            </g>
        </g>
    </g>
</svg>