<svg xmlns="http://www.w3.org/2000/svg" width="24" height="24" viewBox="0 0 24 24">
    <path fill="#8f8f8f" d="M12.28 17.44l-2.74 2.74a3.58 3.58 0 0 1-2.56 1.06c-.96 0-1.87-.37-2.55-1.06l-.88-.87a3.6 3.6 0 0 1 0-5.11l3.65-3.65a3.63 3.63 0 0 1 5.11 0l1.31 1.31c.5.5 1.28.5 1.78 0s.5-1.28 0-1.77l-1.31-1.31a6.14 6.14 0 0 0-8.64 0l-3.67 3.64A6.04 6.04 0 0 0 0 16.76c0 1.65.62 3.14 1.78 4.3l.87.87a6.04 6.04 0 0 0 8.6 0l2.74-2.74c.5-.5.5-1.28 0-1.78-.43-.47-1.21-.47-1.71.03z"/>
    <path fill="#8f8f8f" d="M20.62 1.78A6 6 0 0 0 16.32 0a6 6 0 0 0-4.3 1.78l-2.31 2.3a1.26 1.26 0 0 0 1.78 1.78l2.31-2.31a3.6 3.6 0 0 1 5.11 0l.87.88a3.55 3.55 0 0 1 1.06 2.55c0 .97-.37 1.87-1.06 2.56l-3.21 3.18a3.6 3.6 0 0 1-5.11 0l-1.31-1.31c-.5-.5-1.28-.5-1.78 0-.49.5-.49 1.28 0 1.77l1.31 1.31a6.02 6.02 0 0 0 4.3 1.78c1.63 0 3.15-.62 4.31-1.78l3.17-3.18a6 6 0 0 0 1.78-4.3 6 6 0 0 0-1.78-4.3z"/>
</svg>
