<svg xmlns="http://www.w3.org/2000/svg" width="18" height="18" viewBox="0 0 18 18"><g><g><path fill="#ba2989" d="M12 9a3 3 0 1 1-6 0 3 3 0 0 1 6 0zM9 4.378a4.622 4.622 0 1 0 .001 9.244 4.622 4.622 0 0 0 0-9.244zm4.805-1.262a1.08 1.08 0 1 0 0 2.16 1.08 1.08 0 0 0 0-2.16zM8.193 1.622h.808c2.403 0 2.688.008 3.637.052.877.04 1.353.186 1.67.31.42.163.72.358 1.035.673.315.315.51.615.673 1.035.124.317.27.793.31 1.67.043.95.053 1.234.053 3.636s-.01 2.687-.053 3.636c-.04.877-.186 1.353-.31 1.67-.163.42-.358.72-.673 1.034-.315.315-.614.51-1.034.673-.317.124-.794.27-1.671.31-.95.043-1.234.053-3.637.053s-2.688-.01-3.637-.053c-.877-.04-1.354-.187-1.671-.31a2.788 2.788 0 0 1-1.035-.673 2.79 2.79 0 0 1-.674-1.035c-.123-.316-.27-.793-.31-1.67-.043-.949-.051-1.234-.051-3.637 0-2.404.008-2.687.051-3.636.04-.877.187-1.354.31-1.67.163-.42.359-.72.674-1.036.315-.315.615-.51 1.035-.673.317-.124.794-.27 1.671-.31.83-.038 1.152-.05 2.83-.051zM8.998 0h.003zM5.29.054C4.332.098 3.678.25 3.105.472A4.407 4.407 0 0 0 1.511 1.51c-.5.5-.808 1.003-1.039 1.594C.25 3.677.097 4.331.054 5.29.011 6.249 0 6.556 0 9s.01 2.75.054 3.71c.044.958.196 1.612.419 2.184A4.41 4.41 0 0 0 1.51 16.49c.5.5 1.002.809 1.593 1.038.573.223 1.227.375 2.185.419.96.043 1.267.054 3.71.054 2.445 0 2.751-.01 3.711-.054.958-.044 1.613-.196 2.186-.419a4.403 4.403 0 0 0 1.593-1.038c.5-.5.808-1.003 1.038-1.594.222-.573.374-1.227.419-2.185.043-.96.054-1.266.054-3.71s-.011-2.751-.054-3.711c-.045-.958-.197-1.612-.419-2.184A4.417 4.417 0 0 0 16.49 1.51c-.5-.5-1.002-.808-1.594-1.038-.574-.222-1.228-.374-2.186-.418C11.749.011 11.443 0 8.999 0 6.556 0 6.25.01 5.29.054z"/></g></g></svg>