<svg class="lds-spinner" width="100px" height="100px" xmlns="http://www.w3.org/2000/svg" xmlns:xlink="http://www.w3.org/1999/xlink"
    viewBox="0 0 100 100" preserveAspectRatio="xMidYMid" viewBox="0 0 100 100">
    <g transform="rotate(30 50 50)">
        <rect x="47" y="24" rx="9.4" ry="4.8" width="6" height="12" fill="#000000" fill-opacity="0.087">
        </rect>
    </g>
    <g transform="rotate(60 50 50)">
        <rect x="47" y="24" rx="9.4" ry="4.8" width="6" height="12" fill="#000000" fill-opacity="0.170">
        </rect>
    </g>
    <g transform="rotate(90 50 50)">
        <rect x="47" y="24" rx="9.4" ry="4.8" width="6" height="12" fill="#000000"
        fill-opacity="0.253">
        </rect>
    </g>
    <g transform="rotate(120 50 50)">
        <rect x="47" y="24" rx="9.4" ry="4.8" width="6" height="12" fill="#000000" fill-opacity="0.336">
        </rect>
    </g>
    <g transform="rotate(150 50 50)">
        <rect x="47" y="24" rx="9.4" ry="4.8" width="6" height="12" fill="#000000" fill-opacity="0.419">
        </rect>
    </g>
    <g transform="rotate(180 50 50)">
        <rect x="47" y="24" rx="9.4" ry="4.8" width="6" height="12" fill="#000000" fill-opacity="0.502">
        </rect>
    </g>
    <g transform="rotate(210 50 50)">
        <rect x="47" y="24" rx="9.4" ry="4.8" width="6" height="12" fill="#000000" fill-opacity="0.585">
        </rect>
    </g>
    <g transform="rotate(240 50 50)">
        <rect x="47" y="24" rx="9.4" ry="4.8" width="6" height="12" fill="#000000" fill-opacity="0.668">
        </rect>
    </g>
    <g transform="rotate(270 50 50)">
        <rect x="47" y="24" rx="9.4" ry="4.8" width="6" height="12" fill="#000000" fill-opacity="0.751">
        </rect>
    </g>
    <g transform="rotate(300 50 50)">
        <rect x="47" y="24" rx="9.4" ry="4.8" width="6" height="12" fill="#000000" fill-opacity="0.834">
        </rect>
    </g>
    <g transform="rotate(330 50 50)">
        <rect x="47" y="24" rx="9.4" ry="4.8" width="6" height="12" fill="#000000" fill-opacity="0.917">
        </rect>
    </g>
    <g transform="rotate(0 50 50)">
        <rect x="47" y="24" rx="9.4" ry="4.8" width="6" height="12" fill="#000000" fill-opacity="1">
        </rect>
    </g>
</svg>
