<svg xmlns="http://www.w3.org/2000/svg" width="168" height="80" viewBox="0 0 168 80"><defs><linearGradient id="u5t0b" x1="50.78" x2="94.43" y1="26.88" y2="26.88" gradientUnits="userSpaceOnUse"><stop offset="0" stop-color="#a772a2"/><stop offset="1" stop-color="#802c7b"/></linearGradient><linearGradient id="u5t0d" x1=".16" x2="43.18" y1="22.43" y2="22.43" gradientUnits="userSpaceOnUse"><stop offset="0" stop-color="#efa050"/><stop offset="1" stop-color="#db3f2a"/></linearGradient><linearGradient id="u5t0f" x1="27.79" x2="64.08" y1="22.3" y2="22.3" gradientUnits="userSpaceOnUse"><stop offset="0" stop-color="#8fd1e8"/><stop offset="1" stop-color="#37a6d2"/></linearGradient><linearGradient id="u5t0h" x1="90.06" x2="132.13" y1="22.31" y2="22.31" gradientUnits="userSpaceOnUse"><stop offset="0" stop-color="#c5d63f"/><stop offset="1" stop-color="#6a8e3e"/></linearGradient><linearGradient id="u5t0j" x1="127.71" x2="167.99" y1="22.31" y2="22.31" gradientUnits="userSpaceOnUse"><stop offset="0" stop-color="#e05534"/><stop offset="1" stop-color="#9e2629"/></linearGradient><clipPath id="u5t0a"><path d="M90.123 36.195h4.306v17.213h-9.671V44.28H60.401v9.128H50.78V36.195h4.09c4.105-6.278 4.83-12.327 4.83-22.655V.34h30.423zM68.943 8.466v5.67c0 10.873-.65 15.978-4.248 22.049H80.33V8.466z"/></clipPath><clipPath id="u5t0c"><path d="M36.727 5.238c1.093 1.104 3.897 1.374 4.722 2.725.74 1.203-.47 3.475.044 4.84 1.098 2.937 1.676 6.213 1.682 9.697.023 12.67-7.924 22.26-21.467 22.29C8.166 44.81.18 35.248.16 22.578.136 9.544 8.084.088 21.621.06c6.331-.008 11.447 1.493 15.106 5.178zM21.689 37.25c8.643-.02 11.874-7.405 11.86-14.727-.011-7.69-3.27-15.065-11.909-15.048-8.638.016-11.872 7.404-11.86 15.092.012 7.327 3.277 14.693 11.909 14.683z"/></clipPath><clipPath id="u5t0e"><path d="M27.79.33v7.921c.208.082.412.166.608.26l12.774-.037V44.28h9.619V8.474h13.292V.33H27.79"/></clipPath><clipPath id="u5t0g"><path d="M122.337.34h9.789v43.94h-9.79v-9.173c-1.794 5.689-7.226 9.173-14.835 9.173H90.06V.34h9.791v16.408h7.777c7.44 0 12.903 3.679 14.709 9.529zm-8.515 29.904c0-3.787-2.722-6.045-7.29-6.045H99.22v12.624h7.313c4.362 0 7.289-2.647 7.289-6.579z"/></clipPath><clipPath id="u5t0i"><path d="M153.478 21.48L167.088.34h-11.372l-7.825 13.697L140.246.34h-11.741l13.61 21.488L127.71 44.28h11.495l8.673-14.482 8.138 14.482h11.977l-14.515-22.8"/></clipPath></defs><g><g><g><path fill="#ea8c3d" d="M.16 79.991h167.83V58.32H.16z"/></g><g><path fill="#fffffe" d="M5.57 61.33h2.372v12.903h5.737v1.992H5.57V61.33"/></g><g><path fill="#fffffe" d="M15.7 61.33h8.022v2.008H18.07v4.127h5.318v2.006H18.07v4.762h5.82v1.992H15.7V61.33"/></g><g><path fill="#fffffe" d="M26.21 76.225h2.37V61.33h-2.37z"/></g><g><path fill="#fffffe" d="M33.382 71.62v.376c0 1.814.79 2.728 2.43 2.728 1.498 0 2.243-1.064 2.243-2.168 0-1.568-.784-2.253-2.119-2.65l-1.623-.562c-2.158-.835-3.095-1.96-3.095-4.09 0-2.714 1.829-4.214 4.614-4.214 3.803 0 4.2 2.376 4.2 3.921v.34h-2.37v-.319c0-1.356-.603-2.147-2.08-2.147-1.017 0-1.993.564-1.993 2.147 0 1.272.642 1.922 2.222 2.527l1.604.581c2.099.752 3.012 1.902 3.012 3.943 0 3.173-1.91 4.49-4.909 4.49-3.677 0-4.508-2.466-4.508-4.551v-.353h2.372"/></g><g><path fill="#fffffe" d="M45.146 61.33v10.682c0 1.878.75 2.712 2.185 2.712 1.414 0 2.16-.834 2.16-2.712V61.33h2.371v10.494c0 3.444-1.704 4.7-4.531 4.7-2.848 0-4.551-1.256-4.551-4.7V61.33h2.366"/></g><g><path fill="#fffffe" d="M59.99 61.33c2.08 0 3.765 1.043 3.765 3.844 0 1.914-.851 3.399-2.475 3.648v.041c1.48.146 2.248.966 2.33 3.05.017.954.04 2.124.084 3.026.04.725.39 1.081.707 1.286h-2.684c-.23-.264-.334-.726-.397-1.313-.085-.892-.06-1.73-.103-2.814-.043-1.631-.539-2.337-2.162-2.337h-1.93v6.464H54.75V61.33zm-.976 6.632c1.517 0 2.37-.92 2.37-2.421 0-1.577-.685-2.41-2.244-2.41h-2.015v4.831z"/></g><g><path fill="#fffffe" d="M66.53 61.33h8.026v2.008H68.9v4.127h5.32v2.006H68.9v4.762h5.823v1.992H66.53V61.33"/></g><g><g/><g clip-path="url(#u5t0a)"><path fill="url(#u5t0b)" d="M90.123 36.195h4.306v17.213h-9.671V44.28H60.401v9.128H50.78V36.195h4.09c4.105-6.278 4.83-12.327 4.83-22.655V.34h30.423zM68.943 8.466v5.67c0 10.873-.65 15.978-4.248 22.049H80.33V8.466z"/></g></g><g><g/><g clip-path="url(#u5t0c)"><path fill="url(#u5t0d)" d="M36.727 5.238c1.093 1.104 3.897 1.374 4.722 2.725.74 1.203-.47 3.475.044 4.84 1.098 2.937 1.676 6.213 1.682 9.697.023 12.67-7.924 22.26-21.467 22.29C8.166 44.81.18 35.248.16 22.578.136 9.544 8.084.088 21.621.06c6.331-.008 11.447 1.493 15.106 5.178zM21.689 37.25c8.643-.02 11.874-7.405 11.86-14.727-.011-7.69-3.27-15.065-11.909-15.048-8.638.016-11.872 7.404-11.86 15.092.012 7.327 3.277 14.693 11.909 14.683z"/></g></g><g><g/><g clip-path="url(#u5t0e)"><path fill="url(#u5t0f)" d="M27.79.33v7.921c.208.082.412.166.608.26l12.774-.037V44.28h9.619V8.474h13.292V.33H27.79"/></g></g><g><g/><g clip-path="url(#u5t0g)"><path fill="url(#u5t0h)" d="M122.337.34h9.789v43.94h-9.79v-9.173c-1.794 5.689-7.226 9.173-14.835 9.173H90.06V.34h9.791v16.408h7.777c7.44 0 12.903 3.679 14.709 9.529zm-8.515 29.904c0-3.787-2.722-6.045-7.29-6.045H99.22v12.624h7.313c4.362 0 7.289-2.647 7.289-6.579z"/></g></g><g><g/><g clip-path="url(#u5t0i)"><path fill="url(#u5t0j)" d="M153.478 21.48L167.088.34h-11.372l-7.825 13.697L140.246.34h-11.741l13.61 21.488L127.71 44.28h11.495l8.673-14.482 8.138 14.482h11.977l-14.515-22.8"/></g></g></g></g></svg>