<svg xmlns="http://www.w3.org/2000/svg" width="20" height="18" viewBox="0 0 20 18"><g><g opacity=".9"><path fill="#f39324" d="M17.234 3.09A4.552 4.552 0 0 0 14.05 1.8a4.552 4.552 0 0 0-3.183 1.29l-.867.847-.867-.848c-1.758-1.718-4.608-1.718-6.366 0a4.332 4.332 0 0 0 0 6.224l.868.848L10 16.385l6.366-6.224.867-.848a4.351 4.351 0 0 0 1.319-3.112 4.351 4.351 0 0 0-1.32-3.112z"/><path fill="none" stroke="#f39324" stroke-linecap="round" stroke-linejoin="round" stroke-miterlimit="50" stroke-width="2" d="M17.234 3.09A4.552 4.552 0 0 0 14.05 1.8a4.552 4.552 0 0 0-3.183 1.29l-.867.847v0l-.867-.848c-1.758-1.718-4.608-1.718-6.366 0a4.332 4.332 0 0 0 0 6.224l.868.848v0L10 16.385v0l6.366-6.224v0l.867-.848a4.351 4.351 0 0 0 1.319-3.112 4.351 4.351 0 0 0-1.32-3.112z"/></g></g></svg>