<svg xmlns="http://www.w3.org/2000/svg" width="18" height="10" viewBox="0 0 18 10"><g><g><path fill="#4c6c91" d="M9.883 9.958s.325-.035.491-.209c.152-.16.147-.46.147-.46s-.02-1.406.65-1.613c.66-.204 1.508 1.359 2.408 1.96.68.454 1.195.355 1.195.355l2.404-.033s1.258-.075.662-1.038c-.05-.079-.348-.712-1.788-2.014-1.508-1.362-1.305-1.142.51-3.499 1.106-1.435 1.548-2.31 1.41-2.686-.131-.358-.945-.263-.945-.263l-2.706.017s-.201-.027-.35.06c-.145.084-.24.282-.24.282s-.427 1.11-.998 2.055c-1.206 1.993-1.687 2.098-1.884 1.975-.46-.29-.345-1.16-.345-1.777 0-1.932.301-2.737-.585-2.945-.294-.07-.51-.115-1.264-.123-.965-.01-1.782.004-2.245.224-.308.147-.546.474-.4.493.178.023.583.106.798.39.277.369.267 1.193.267 1.193s.16 2.274-.372 2.556c-.365.194-.865-.201-1.94-2.01-.55-.925-.965-1.95-.965-1.95s-.08-.19-.224-.293C3.4.48 3.158.442 3.158.442L.587.458S.2.468.059.632c-.126.145-.01.446-.01.446s2.013 4.588 4.294 6.9c2.09 2.12 4.464 1.98 4.464 1.98z"/></g></g></svg>